<svg width="35" height="36" viewBox="0 0 35 36" fill="none" xmlns="http://www.w3.org/2000/svg">
<path d="M28.9843 30.6279C26.019 30.6279 23.0719 29.8988 20.1431 28.4404C17.2143 26.9821 14.5832 25.0863 12.2499 22.7529C9.91654 20.4196 8.02071 17.7885 6.56238 14.8597C5.10404 11.9309 4.37488 8.98383 4.37488 6.01855C4.37488 5.55675 4.53286 5.16786 4.84884 4.85189C5.16481 4.53592 5.5537 4.37793 6.0155 4.37793H11.1197C11.4599 4.37793 11.7577 4.49338 12.0129 4.72428C12.2681 4.95519 12.4322 5.26508 12.5051 5.65397L13.4895 10.2477C13.5381 10.588 13.532 10.8979 13.4712 11.1774C13.4105 11.4569 13.2829 11.6939 13.0884 11.8883L9.44259 15.5706C10.8037 17.8311 12.3289 19.7998 14.0181 21.4769C15.7073 23.154 17.6214 24.5758 19.7603 25.7425L23.2238 22.1696C23.4669 21.9022 23.7464 21.7139 24.0624 21.6045C24.3784 21.4951 24.6943 21.4769 25.0103 21.5498L29.3488 22.4977C29.7134 22.5706 30.0172 22.7529 30.2603 23.0446C30.5034 23.3363 30.6249 23.6765 30.6249 24.0654V28.9873C30.6249 29.4491 30.4669 29.838 30.1509 30.154C29.8349 30.4699 29.4461 30.6279 28.9843 30.6279ZM8.34884 13.5654L11.302 10.5758L10.4634 6.56543H6.56238C6.56238 7.51335 6.70821 8.55241 6.99988 9.68262C7.29154 10.8128 7.7412 12.1071 8.34884 13.5654ZM21.802 26.7998C22.7985 27.2616 23.8801 27.6383 25.0468 27.93C26.2134 28.2217 27.3436 28.3918 28.4374 28.4404V24.5394L24.6822 23.7738L21.802 26.7998Z" fill="url(#paint0_linear_19_189)"/>
<defs>
<linearGradient id="paint0_linear_19_189" x1="17.4999" y1="4.37793" x2="17.4999" y2="30.6279" gradientUnits="userSpaceOnUse">
<stop offset="0.273958" stop-color="#F89016"/>
<stop offset="1" stop-color="#F25C05"/>
</linearGradient>
</defs>
</svg>
