<svg width="35" height="36" viewBox="0 0 35 36" fill="none" xmlns="http://www.w3.org/2000/svg">
<path d="M8.7499 20.4561H20.1614V18.2686H8.7499V20.4561ZM8.7499 15.7166H26.2499V13.5291H8.7499V15.7166ZM8.7499 10.977H26.2499V8.78947H8.7499V10.977ZM2.91656 32.0863V5.10718C2.91656 4.54815 3.13531 4.04381 3.57282 3.59416C4.01031 3.1445 4.52073 2.91968 5.10406 2.91968H29.8957C30.4548 2.91968 30.9591 3.1445 31.4088 3.59416C31.8584 4.04381 32.0832 4.54815 32.0832 5.10718V24.0655C32.0832 24.6245 31.8584 25.1289 31.4088 25.5785C30.9591 26.0282 30.4548 26.253 29.8957 26.253H8.7499L2.91656 32.0863ZM5.10406 26.7999L7.83844 24.0655H29.8957V5.10718H5.10406V26.7999ZM5.10406 5.10718V26.7999V5.10718Z" fill="url(#paint0_linear_19_192)"/>
<defs>
<linearGradient id="paint0_linear_19_192" x1="17.4999" y1="2.91968" x2="17.4999" y2="32.0863" gradientUnits="userSpaceOnUse">
<stop offset="0.273958" stop-color="#F89016"/>
<stop offset="1" stop-color="#F25C05"/>
</linearGradient>
</defs>
</svg>
