<svg width="136" height="34" viewBox="0 0 136 34" fill="none" xmlns="http://www.w3.org/2000/svg">
<path d="M0 30C0 28.8954 0.895431 28 2 28H134C135.105 28 136 28.8954 136 30V32C136 33.1045 135.105 34 134 34H2C0.895432 34 0 33.1045 0 32V30Z" fill="url(#paint0_linear_102_2)"/>
<path d="M12.328 0.823975V18.84H20.968L20.424 23H7.08V0.823975H12.328Z" fill="black"/>
<path d="M28.7343 0.823975V23H23.4862V0.823975H28.7343Z" fill="black"/>
<path d="M40.0293 0.823975C42.9519 0.823975 45.2239 1.43197 46.8453 2.64797C48.4666 3.86397 49.2773 5.66664 49.2773 8.05597C49.2773 10.552 48.4773 12.44 46.8773 13.72C45.2986 14.9786 43.1759 15.608 40.5093 15.608H38.1092V23H32.8613V0.823975H40.0293ZM40.0612 11.832C41.2986 11.832 42.2373 11.544 42.8773 10.968C43.5386 10.3706 43.8693 9.39997 43.8693 8.05597C43.8693 5.73064 42.5679 4.56797 39.9652 4.56797H38.1092V11.832H40.0612Z" fill="black"/>
<path d="M65.6488 0.823975L65.1048 4.56797H57.2967V9.87997H64.1127V13.56H57.2967V19.224H65.6488V23H52.0488V0.823975H65.6488Z" fill="black"/>
<path d="M93.0943 0.823975L86.9183 23H80.3903L73.9902 0.823975H79.5263L83.7503 18.904L87.7182 0.823975H93.0943Z" fill="black"/>
<path d="M104.254 23L103.102 18.232H96.6377L95.5178 23H90.0778L96.7658 0.823975H103.134L109.822 23H104.254ZM97.5338 14.424H102.206L99.8698 4.63198L97.5338 14.424Z" fill="black"/>
<path d="M124.153 0.823975V4.79198L114.521 18.808H124.313L123.801 23H108.345V19.064L118.169 4.88797H109.337V0.823975H124.153Z" fill="black"/>
<defs>
<linearGradient id="paint0_linear_102_2" x1="68" y1="0.823975" x2="68" y2="34" gradientUnits="userSpaceOnUse">
<stop stop-color="#F89016"/>
<stop offset="1" stop-color="#F25C05"/>
</linearGradient>
</defs>
</svg>
