<svg width="35" height="36" viewBox="0 0 35 36" fill="none" xmlns="http://www.w3.org/2000/svg">
<path d="M5.10406 29.1695C4.52073 29.1695 4.01031 28.9508 3.57282 28.5133C3.13531 28.0758 2.91656 27.5653 2.91656 26.982V8.02368C2.91656 7.44035 3.13531 6.92993 3.57282 6.49243C4.01031 6.05493 4.52073 5.83618 5.10406 5.83618H29.8957C30.4791 5.83618 30.9895 6.05493 31.427 6.49243C31.8645 6.92993 32.0832 7.44035 32.0832 8.02368V26.982C32.0832 27.5653 31.8645 28.0758 31.427 28.5133C30.9895 28.9508 30.4791 29.1695 29.8957 29.1695H5.10406ZM17.4999 18.1591L5.10406 10.0289V26.982H29.8957V10.0289L17.4999 18.1591ZM17.4999 15.9716L29.7499 8.02368H5.28636L17.4999 15.9716ZM5.10406 10.0289V8.02368V26.982V10.0289Z" fill="url(#paint0_linear_19_194)"/>
<defs>
<linearGradient id="paint0_linear_19_194" x1="17.4999" y1="5.83618" x2="17.4999" y2="29.1695" gradientUnits="userSpaceOnUse">
<stop offset="0.273958" stop-color="#F89016"/>
<stop offset="1" stop-color="#F25C05"/>
</linearGradient>
</defs>
</svg>
