<svg width="38" height="40" viewBox="0 0 38 40" fill="none" xmlns="http://www.w3.org/2000/svg">
<path d="M22.1667 16.0833V14.0833C23.0375 13.6944 23.9281 13.4027 24.8386 13.2083C25.749 13.0138 26.7056 12.9166 27.7083 12.9166C28.3945 12.9166 29.0674 12.9722 29.7271 13.0833C30.3868 13.1944 31.0333 13.3333 31.6667 13.5V15.3333C31.0333 15.0833 30.3934 14.8958 29.7469 14.7708C29.1004 14.6458 28.4208 14.5833 27.7083 14.5833C26.7056 14.5833 25.7424 14.7152 24.8188 14.9791C23.8951 15.243 23.0111 15.6111 22.1667 16.0833ZM22.1667 25.25V23.2083C23.0375 22.8194 23.9281 22.5347 24.8386 22.3541C25.749 22.1736 26.7056 22.0833 27.7083 22.0833C28.3945 22.0833 29.0674 22.1388 29.7271 22.25C30.3868 22.3611 31.0333 22.5 31.6667 22.6666V24.5C31.0333 24.25 30.3934 24.0625 29.7469 23.9375C29.1004 23.8125 28.4208 23.75 27.7083 23.75C26.7056 23.75 25.7424 23.875 24.8188 24.125C23.8951 24.375 23.0111 24.75 22.1667 25.25ZM22.1667 20.6666V18.6666C23.0375 18.2777 23.9281 17.9861 24.8386 17.7916C25.749 17.5972 26.7056 17.5 27.7083 17.5C28.3945 17.5 29.0674 17.5555 29.7271 17.6666C30.3868 17.7777 31.0333 17.9166 31.6667 18.0833V19.9166C31.0333 19.6666 30.3934 19.4791 29.7469 19.3541C29.1004 19.2291 28.4208 19.1666 27.7083 19.1666C26.7056 19.1666 25.7424 19.2986 24.8188 19.5625C23.8951 19.8263 23.0111 20.1944 22.1667 20.6666ZM9.81668 27.5C11.2417 27.5 12.6205 27.6736 13.9531 28.0208C15.2858 28.368 16.5986 28.8888 17.8917 29.5833V11.7916C16.7042 10.9583 15.4177 10.3125 14.0323 9.85413C12.6469 9.39579 11.2417 9.16663 9.81668 9.16663C8.8139 9.16663 7.83091 9.29857 6.86772 9.56246C5.90452 9.82635 4.93473 10.1527 3.95834 10.5416V28.625C4.7764 28.2361 5.70661 27.9513 6.74897 27.7708C7.79133 27.5902 8.8139 27.5 9.81668 27.5ZM20.2667 29.5833C21.5861 28.8888 22.8792 28.368 24.1458 28.0208C25.4125 27.6736 26.7583 27.5 28.1833 27.5C29.1861 27.5 30.2219 27.5833 31.2906 27.75C32.3594 27.9166 33.2764 28.1388 34.0417 28.4166V10.5416C33.1445 10.0694 32.1945 9.72218 31.1917 9.49996C30.1889 9.27774 29.1861 9.16663 28.1833 9.16663C26.7583 9.16663 25.3795 9.39579 24.0469 9.85413C22.7142 10.3125 21.4542 10.9583 20.2667 11.7916V29.5833ZM19.0792 33.3333C17.7333 32.2777 16.2688 31.4652 14.6854 30.8958C13.1021 30.3263 11.4792 30.0416 9.81668 30.0416C8.84029 30.0416 7.89029 30.1666 6.96668 30.4166C6.04307 30.6666 5.11945 30.9722 4.19584 31.3333C3.5889 31.6388 3.00175 31.5972 2.43439 31.2083C1.86702 30.8194 1.58334 30.2638 1.58334 29.5416V10.25C1.58334 9.83329 1.6757 9.45135 1.86043 9.10413C2.04515 8.7569 2.32223 8.48607 2.69168 8.29163C3.80001 7.73607 4.95452 7.32635 6.15522 7.06246C7.35591 6.79857 8.5764 6.66663 9.81668 6.66663C11.4792 6.66663 13.0955 6.90274 14.6656 7.37496C16.2358 7.84718 17.707 8.5694 19.0792 9.54163C20.425 8.5694 21.8698 7.84718 23.4136 7.37496C24.9573 6.90274 26.5472 6.66663 28.1833 6.66663C29.4236 6.66663 30.6375 6.79857 31.825 7.06246C33.0125 7.32635 34.1604 7.73607 35.2688 8.29163C35.6382 8.48607 35.9219 8.7569 36.1198 9.10413C36.3177 9.45135 36.4167 9.83329 36.4167 10.25V29.5416C36.4167 30.3194 36.1198 30.9097 35.5261 31.3125C34.9323 31.7152 34.3451 31.7222 33.7646 31.3333C32.8674 30.9444 31.957 30.6319 31.0333 30.3958C30.1097 30.1597 29.1597 30.0416 28.1833 30.0416C26.5208 30.0416 24.9243 30.3333 23.3938 30.9166C21.8632 31.5 20.425 32.3055 19.0792 33.3333Z" fill="url(#paint0_linear_18_182)"/>
<defs>
<linearGradient id="paint0_linear_18_182" x1="19" y1="6.66663" x2="19" y2="33.3333" gradientUnits="userSpaceOnUse">
<stop stop-color="#F89016"/>
<stop offset="1" stop-color="#F25C05"/>
</linearGradient>
</defs>
</svg>
